HIERARCHY
ROOT Hips
{
   OFFSET 0.00000 0.00000 0.00000
   CHANNELS 6 Xposition Yposition Zposition Zrotation Xrotation Yrotation
   JOINT RightUpLeg
   {
      OFFSET -11.629540 -11.267191 0.132148
      CHANNELS 3 Zrotation Xrotation Yrotation
      JOINT RightLeg
      {
         OFFSET 0.000000 -57.749504 1.784510
         CHANNELS 3 Zrotation Xrotation Yrotation
         JOINT RightFoot
         {
            OFFSET 0.329614 -54.720115 -1.898767
            CHANNELS 3 Zrotation Xrotation Yrotation
            JOINT RightToes
            {
               OFFSET 0.052000 -5.739617 11.048829
               CHANNELS 3 Zrotation Xrotation Yrotation
               End Site
               {
                  OFFSET -0.104000 -0.178682 12.713727
               }
            }
         }
      }
   }
   JOINT Spine
   {
      OFFSET 0.000000 15.457650 0.000000
      CHANNELS 3 Zrotation Xrotation Yrotation
      JOINT Spine1
      {
         OFFSET 0.000000 33.354620 0.165962
         CHANNELS 3 Zrotation Xrotation Yrotation
         JOINT HEad
         {
            OFFSET 0.000000 11.354408 0.014743
            CHANNELS 3 Zrotation Xrotation Yrotation
            End Site
            {
               OFFSET -0.377000 16.606459 3.268135
            }
         }
         JOINT LeftShoulder1
         {
            OFFSET 11.687000 -0.470928 -0.286000
            CHANNELS 3 Zrotation Xrotation Yrotation
            JOINT LeftArm
            {
               OFFSET 13.367510 -0.004394 0.418760
               CHANNELS 3 Zrotation Xrotation Yrotation
               JOINT LeftForeArm
               {
                  OFFSET 42.596969 0.128887 -1.851642
                  CHANNELS 3 Zrotation Xrotation Yrotation
                  JOINT LeftHand
                  {
                     OFFSET 35.833589 0.110971 1.328808
                     CHANNELS 3 Zrotation Xrotation Yrotation
                     End Site
                     {
                        OFFSET 21.767590 -0.780000 1.953783
                     }
                  }
               }
            }
         }
         JOINT RightShoulder
         {
            OFFSET -11.687000 -0.470928 -0.286000
            CHANNELS 3 Zrotation Xrotation Yrotation
            JOINT RightArm
            {
               OFFSET -13.367510 -0.004394 0.418760
               CHANNELS 3 Zrotation Xrotation Yrotation
               JOINT RightForeArm
               {
                  OFFSET -42.766227 0.128887 -1.851642
                  CHANNELS 3 Zrotation Xrotation Yrotation
                  JOINT RightHand
                  {
                     OFFSET -35.739729 0.110971 1.328808
                     CHANNELS 3 Zrotation Xrotation Yrotation
                     End Site
                     {
                        OFFSET -21.620562 -0.780000 1.953783
                     }
                  }
               }
            }
         }
      }
   }
   JOINT LeftUpLeg
   {
      OFFSET 11.629540 -11.267191 0.132148
      CHANNELS 3 Zrotation Xrotation Yrotation
      JOINT LeftLeg
      {
         OFFSET 0.000000 -57.749504 1.784510
         CHANNELS 3 Zrotation Xrotation Yrotation
         JOINT LeftFoot
         {
            OFFSET -0.329614 -54.720115 -1.898767
            CHANNELS 3 Zrotation Xrotation Yrotation
            JOINT LeftToes
            {
               OFFSET -0.052000 -5.739617 11.048829
               CHANNELS 3 Zrotation Xrotation Yrotation
               End Site
               {
                  OFFSET 0.104000 -0.061682 12.713727
               }
            }
         }
      }
   }
}
MOTION
Frames: 16
Frame Time: 0.016667
-965.436845 117.603434 359.253916 37.767121 -25.547267 52.185073 -22.407450 37.653955 9.834103 27.298413 20.736695 33.052884 -65.944903 43.061013 4.947474 12.758574 -14.713090 -44.356560 -21.674359 68.737002 132.361047 46.051277 -19.758470 -106.210104 7.231614 -0.591758 17.770194 51.292699 44.867656 -48.140601 -128.481992 32.703940 -202.297718 -13.189249 66.910411 -44.291772 -56.773116 -44.905055 -63.955152 198.629264 -24.948292 105.199632 278.952084 243.446465 570.905678 77.744369 195.452912 91.189671 -66.088938 -38.790270 -21.883897 -1.070078 15.271067 38.521905 23.824359 27.046118 79.467755 -46.940325 59.533438 0.407184 45.366977 -24.198522 -77.696783
-965.722260 117.345598 359.041056 38.172244 -26.493870 51.065749 -23.831826 37.904893 11.916362 28.652422 19.036328 30.413432 -66.538781 43.816907 5.627979 12.538260 -15.349207 -44.681667 -22.878265 71.539736 132.218119 41.922653 -18.663777 -107.343950 12.321755 -3.760043 13.982634 51.780603 43.938487 -50.084558 -129.672139 29.760319 -201.140123 -12.493032 66.201089 -43.649161 -55.105348 -44.975597 -67.328665 194.230144 -26.794395 105.581761 277.364420 243.491026 568.681332 75.189632 201.756958 87.363843 -60.991581 -34.683178 -24.319128 -0.134563 15.968226 34.990004 19.368132 29.918247 88.600859 -45.316406 58.529257 -1.043471 44.413705 -26.679006 -77.981561
-965.772767 116.767815 358.804926 39.723069 -28.127892 52.699988 -24.262753 39.671094 14.076557 29.933304 18.302800 27.921938 -66.427565 44.028663 6.457749 12.288742 -16.141135 -45.065407 -23.705495 71.252226 131.046441 38.392473 -19.057288 -108.711265 14.800161 -6.901038 11.255617 51.822547 42.464208 -50.857524 -133.363733 23.167616 -198.129390 -9.895025 64.436346 -41.698814 -54.608602 -45.294137 -67.291645 191.548339 -28.371588 103.452436 274.728950 243.723880 568.584507 73.103972 204.741177 86.701772 -58.959812 -32.235071 -23.614590 0.505081 18.215764 32.912551 16.728986 30.042970 95.666273 -44.422901 56.561968 -2.739581 43.655858 -28.400456 -77.546594
-965.524888 115.998018 358.834032 41.642980 -29.982666 54.816715 -25.312054 41.844348 16.154646 31.745616 18.289310 26.265971 -65.855625 43.501666 7.341831 12.051257 -16.911214 -45.459574 -22.254694 72.400975 129.786326 37.190465 -19.459264 -109.240201 16.213117 -6.779318 8.774823 49.322920 40.933648 -48.693166 -136.496741 16.062732 -193.657419 -8.222437 61.307710 -41.886910 -52.742072 -46.819045 -67.638803 192.175528 -28.767794 102.541302 271.311124 243.069712 566.827837 71.889257 204.937476 85.896766 -58.119623 -30.977476 -21.657751 1.385362 19.929985 31.564387 14.609921 30.462347 102.202402 -43.618486 54.154432 -2.915716 42.735350 -28.847010 -75.526688
-965.145860 115.064924 359.062724 43.671847 -31.132552 56.750577 -26.679221 44.075282 17.693528 33.117477 18.200045 24.783574 -65.458853 42.731764 7.949197 11.625500 -18.016828 -45.873726 -21.050744 73.063182 128.155591 35.520102 -19.432008 -109.998817 16.986216 -5.594345 6.424459 44.977086 38.733757 -45.229161 -138.096262 7.776078 -187.948706 -6.687783 57.424037 -43.090437 -51.390637 -47.736797 -67.950595 194.229188 -28.745124 103.311085 266.016989 242.027425 562.831903 70.418731 204.782008 84.270553 -57.612092 -30.474457 -19.334771 1.444629 22.345348 29.738931 13.725621 29.704394 103.834838 -43.239079 51.548677 -4.565645 42.334838 -29.205848 -75.011924
-964.586472 114.111183 359.541926 46.857256 -32.494420 58.288438 -29.219402 47.089455 19.130991 33.466892 18.383883 23.392317 -65.200508 41.598191 8.259963 11.057187 -19.414294 -46.389388 -20.540481 73.505908 127.020550 34.868444 -18.968491 -110.247415 16.516743 -3.865876 4.313060 39.434463 35.910252 -40.616850 -137.975436 -2.058311 -180.729264 -4.583862 53.197335 -44.681048 -49.459445 -49.185855 -68.206331 197.216412 -28.412472 104.781085 258.871956 241.248647 556.890841 68.105940 204.568796 82.896674 -57.256233 -30.834336 -16.546656 2.687203 24.152116 27.058069 11.824183 32.549953 102.975934 -42.488168 50.456014 -5.110905 41.997010 -28.952185 -74.797470
-963.897538 113.039559 360.145678 50.189780 -32.414322 61.344982 -31.258245 50.335380 19.966620 33.582599 18.188589 21.853170 -65.194470 40.991404 8.440742 10.494163 -20.732621 -46.820349 -20.582355 73.195429 125.466682 34.576409 -18.822277 -110.656270 14.887997 -2.125880 2.419900 33.076704 31.627532 -35.248427 -135.971636 -13.009402 -172.523270 -1.586979 48.688464 -46.523427 -48.110681 -50.063265 -68.456295 201.406993 -27.867211 106.575779 249.788160 241.001285 548.933998 65.244849 203.723861 82.863247 -57.512898 -32.316962 -12.487678 2.995742 27.234466 25.546309 10.234566 32.601845 100.581024 -42.171152 49.666755 -6.659414 42.042283 -29.305774 -75.622570
-963.064713 111.908491 360.879549 54.114018 -29.884714 66.969827 -32.143417 53.649746 20.538343 33.844557 18.925575 19.930779 -65.759436 40.096861 8.052487 9.786088 -22.222594 -47.059204 -21.081924 73.671445 122.378740 35.219252 -19.635511 -112.165667 12.612018 -0.254838 0.632414 25.553812 25.479206 -29.423755 -132.134668 -24.834049 -163.890184 2.016598 43.702542 -48.779688 -46.302587 -51.560391 -68.737904 207.471682 -26.789836 108.491128 239.396027 241.594883 538.406272 63.255966 198.971607 88.263871 -59.966035 -35.800443 -4.099428 1.444512 31.621894 26.028183 9.684283 28.216336 96.701941 -42.897833 49.709953 -9.144052 42.207451 -29.186983 -76.246604
-962.150712 110.669888 361.729502 55.166410 -28.299524 69.490454 -33.089138 55.574439 20.359600 34.919803 18.145909 18.388012 -66.338649 39.276982 7.948107 8.910503 -23.563524 -46.938395 -20.802979 73.945752 119.317982 32.425517 -19.034472 -114.223794 9.909127 0.668902 0.298996 19.365599 18.161261 -23.597462 -118.872148 -38.002824 -149.962704 18.108256 38.706518 -55.246631 -44.656439 -53.280912 -68.943684 210.445273 -27.118752 111.664611 226.546009 242.050757 525.185102 60.709809 199.137143 87.602469 -58.424154 -36.234741 0.286154 -0.081246 34.358140 24.634392 11.204976 24.723290 92.111248 -43.790890 48.956306 -11.969479 42.279837 -30.048143 -77.250491
-961.067262 109.508179 362.546419 56.311747 -27.490362 71.226633 -35.836497 58.623056 20.649542 35.536166 16.401309 17.829545 -66.850292 37.286426 8.367306 7.724518 -25.042668 -46.009660 -19.788757 73.527827 115.572661 31.246343 -18.875081 -116.464438 6.171183 1.685109 1.423330 15.022067 13.508786 -20.607441 -106.323690 -48.392385 -136.823347 27.144680 35.049621 -57.508137 -42.535102 -55.642027 -69.057939 211.404696 -27.882692 114.338815 211.929295 243.174023 510.071205 58.957851 200.311690 87.480940 -55.329764 -34.928925 4.950705 -0.341439 35.907848 24.528690 11.579181 22.446367 86.980109 -44.899679 48.090208 -14.015888 41.960120 -31.161222 -77.170469
-959.991593 108.316878 363.243975 57.046628 -26.624941 72.274719 -37.910026 59.937403 21.752764 35.718843 16.282966 17.203971 -67.628107 35.924261 8.764112 6.398705 -26.685279 -44.734129 -18.276989 73.217907 111.531047 31.735972 -19.518760 -118.331047 1.858536 2.439925 3.795147 11.713032 9.630828 -19.379912 -94.740461 -55.326223 -126.255036 31.610262 33.043427 -57.747036 -40.762238 -57.872896 -69.670832 210.463140 -28.674606 115.131636 195.721570 244.508478 494.438214 56.795410 201.792161 88.681230 -51.417333 -33.129382 9.019471 -0.376314 38.117093 25.164353 11.586095 21.951108 82.293049 -46.066867 48.164995 -14.542550 41.097016 -31.538190 -75.885403
-958.843446 107.290753 364.001269 58.133482 -26.152552 73.458671 -39.916332 61.089239 23.188438 35.971854 17.105613 16.371514 -68.501900 35.340013 9.201673 5.026916 -28.528793 -43.363932 -16.311316 73.451451 107.386591 32.111834 -19.832911 -120.078264 -2.160497 3.065813 6.033001 8.226961 7.322192 -18.418356 -85.033710 -60.366366 -116.976934 32.634453 32.391011 -57.628970 -38.809360 -60.272103 -70.912554 207.552496 -30.181503 115.408682 177.102734 245.309823 476.952055 53.657502 204.296436 87.880185 -46.575746 -30.821389 12.439275 -0.979780 38.989155 25.237440 12.707791 22.571506 78.731488 -47.006537 47.323362 -14.685103 40.056293 -32.474479 -74.485774
-957.631135 106.445978 364.839472 59.279963 -25.780359 75.336344 -41.495144 61.371176 26.107175 36.531547 19.179277 16.482493 -69.983033 33.261327 9.922710 2.539135 -31.748283 -40.975145 -14.041878 74.274346 102.294698 31.222553 -21.549272 -121.474518 -6.348491 4.357163 8.221744 3.032502 4.272980 -18.071241 -78.521385 -61.938512 -110.057843 32.677572 31.246872 -57.201035 -37.001399 -62.270944 -72.052444 203.449943 -32.525426 114.737452 156.494783 244.805127 456.789692 49.391362 205.648158 87.253679 -43.323429 -30.267444 20.241942 -0.782533 38.158457 24.520106 14.064655 26.788610 76.744456 -47.373311 46.369806 -13.678612 38.815268 -33.594036 -72.793882
-956.646562 105.516537 365.484309 58.989475 -23.917079 77.230643 -43.423689 63.607660 26.066316 36.871468 15.851836 15.973045 -70.421969 32.146910 10.910939 1.070956 -33.846743 -39.350219 -13.853663 76.324236 97.508354 30.792760 -21.612093 -122.913502 -9.498725 6.194372 10.070839 -2.716207 0.437502 -17.956624 -73.143403 -60.778459 -105.827477 32.059692 31.013980 -57.096792 -36.227371 -63.041799 -73.086706 193.793599 -36.003717 112.617976 132.677627 242.341450 434.011940 44.107951 210.967509 86.325245 -38.900229 -28.357620 26.696812 -2.231413 37.420113 24.444115 16.081708 25.710712 73.527178 -47.688452 44.284249 -14.419535 38.328645 -34.504336 -72.214408
-956.084886 104.685086 365.867914 60.195953 -23.268325 78.296706 -45.931315 65.778622 26.847457 36.949865 14.530140 14.737035 -70.578776 31.528946 10.931413 0.149980 -35.333791 -38.632776 -12.561445 76.243237 93.332349 34.044709 -21.602983 -122.437315 -12.237482 8.930069 11.722205 -7.958500 -3.791987 -14.588258 -67.754650 -59.864743 -102.871883 29.786216 33.525430 -58.173479 -36.611340 -62.951238 -72.658050 180.538825 -39.853532 108.965027 109.156047 236.864294 410.021037 40.478536 215.939381 89.373176 -32.511192 -23.728813 31.691856 -2.974297 38.099523 23.068308 17.421654 26.134954 70.360183 -47.758199 43.804530 -14.807099 37.864236 -34.608220 -71.455342
-955.619569 104.469841 366.158327 60.257431 -23.585994 79.395704 -45.422735 65.487253 28.697296 38.554488 14.341609 13.658678 -70.257279 32.277596 11.330914 -0.383937 -35.812953 -38.242417 -11.302010 76.493836 90.651179 39.357097 -20.802724 -120.376306 -14.901060 14.055376 13.213839 -14.366099 -9.822769 -13.784684 -64.140715 -57.783195 -102.547545 24.438950 35.231028 -62.937639 -36.441641 -63.993279 -70.910068 163.872139 -41.276807 102.391755 87.697477 228.274102 386.802574 36.012056 219.143040 90.297771 -26.573853 -19.907423 36.761137 -3.268083 37.448862 22.461140 18.715949 26.277541 68.981468 -47.533062 42.399017 -14.179635 37.169046 -34.605580 -69.867098
